<svg height="512pt" viewBox="-1 -1 512 512.00001" width="512pt" xmlns="http://www.w3.org/2000/svg"><path d="m510.976562 510.976562h-447.105468c-35.273438 0-63.871094-28.597656-63.871094-63.871093v-447.105469h510.976562zm0 0" fill="#ecce93"/><path d="m479.042969 191.9375v190.816406c-.160157 0-.160157.160156-.160157.160156l-96.128906 128.0625h-62.914062l-96.128906-128.0625c-36.40625-48.703124-42.3125-112.574218-15.007813-167.027343 27.144531-54.289063 81.757813-88.140625 142.59375-88.140625 51.257813 0 98.203125 24.109375 127.746094 64.191406zm0 0" fill="#e5bd76"/><path d="m319.359375 0h191.617187v510.976562h-191.617187zm0 0" fill="#c59969"/><path d="m415.167969 510.976562v-510.976562h-95.808594v510.976562zm0 0" fill="#ba8a5a"/><path d="m415.167969 399.203125-95.007813 111.773437h190.816406v-.09375zm0 0" fill="#916e40"/><path d="m465.375 230.195312c-21.75-43.496093-65.453125-70.515624-114.078125-70.515624-48.621094 0-92.328125 27.019531-114.089844 70.515624-21.734375 43.480469-17.121093 94.660157 12.054688 133.558594l102.035156 136.046875 102.035156-136.046875c29.175781-38.898437 33.789063-90.078125 12.042969-133.558594zm-114.078125 121.101563c-35.226563 0-63.871094-28.644531-63.871094-63.871094 0-35.226562 28.644531-63.871093 63.871094-63.871093s63.871094 28.644531 63.871094 63.871093c0 35.226563-28.644531 63.871094-63.871094 63.871094zm0 0" fill="#e4edfb"/><path d="m223.554688 159.679688h-127.746094c-17.644532 0-31.9375-14.289063-31.9375-31.933594v-47.90625c0-17.644532 14.292968-31.9375 31.9375-31.9375h127.746094c17.644531 0 31.933593 14.292968 31.933593 31.9375v47.90625c0 17.644531-14.304687 31.933594-31.933593 31.933594zm0 0" fill="#2d2d30"/><path d="m255.488281 79.839844h-191.617187c0-17.644532 14.292968-31.9375 31.9375-31.9375h127.746094c17.628906 0 31.933593 14.292968 31.933593 31.9375zm0 0" fill="#57565c"/></svg>