<svg height="512pt" viewBox="-69 0 511 512" width="512pt" xmlns="http://www.w3.org/2000/svg"><path d="m117.214844 144v-112c0-17.679688 14.320312-32 32-32h160c17.679687 0 32 14.320312 32 32v112c0 17.679688-14.320313 32-32 32h-160c-17.664063 0-32-14.320312-32-32zm0 0" fill="#c59969"/><path d="m117.214844 144h224c0 17.679688-14.320313 32-32 32h-160c-17.664063 0-32-14.320312-32-32zm0 0" fill="#ba8a5a"/><path d="m117.214844 208v144c0 17.679688 14.320312 32 32 32h192c17.679687 0 32-14.320312 32-32v-144c0-17.679688-14.320313-32-32-32h-192c-17.664063 0-32 14.320312-32 32zm0 0" fill="#c59969"/><path d="m85.214844 73.441406v326.558594h-32v-313.441406l-48.015625-47.886719c-6.253907-6.238281-6.269531-16.382813-.015625-22.640625l.082031-.0625c6.253906-6.257812 16.398437-6.242188 22.636719.015625zm0 0" fill="#77959e"/><path d="m341.214844 448c0 8.832031-7.167969 16-16 16h-208v-32h208c8.847656 0 16 7.167969 16 16zm0 0" fill="#77959e"/><path d="m197.214844 176h96v96h-96zm0 0" fill="#fdd835"/><path d="m181.214844 0h96v96h-96zm0 0" fill="#fdd835"/><path d="m69.214844 352c5.441406 0 10.882812.480469 16 1.441406v46.558594h-32v-46.558594c5.121094-.960937 10.5625-1.441406 16-1.441406zm0 0" fill="#62808c"/><path d="m165.214844 448c0 5.441406-.480469 10.878906-1.4375 16h-46.5625v-32h46.5625c.957031 5.121094 1.4375 10.558594 1.4375 16zm0 0" fill="#62808c"/><path d="m133.214844 448c0 35.347656-28.652344 64-64 64-35.34375 0-64-28.652344-64-64s28.65625-64 64-64c35.347656 0 64 28.652344 64 64zm0 0" fill="#57565c"/><path d="m69.214844 480c-29.726563 0-54.574219-20.464844-61.726563-48-1.34375 5.152344-2.273437 10.449219-2.273437 16 0 35.296875 28.707031 64 64 64 35.296875 0 64-28.703125 64-64 0-5.550781-.925782-10.847656-2.269532-16-7.152343 27.535156-31.984374 48-61.730468 48zm0 0" fill="#2d2d30"/><g fill="#fff"><path d="m309.214844 320h32v32h-32zm0 0"/><path d="m245.214844 320h32v32h-32zm0 0"/></g></svg>