<svg height="512pt" viewBox="0 -32 512 512" width="512pt" xmlns="http://www.w3.org/2000/svg"><path d="m512 208v192h-192v-272h112c44.160156 0 80 35.839844 80 80zm0 0" fill="#77959e"/><path d="m432 128h-112v128h192v-48c0-44.113281-35.886719-80-80-80zm0 0" fill="#40a2e7"/><path d="m320 128h80v128h-80zm0 0" fill="#168de2"/><path d="m512 336h-48c-8.832031 0-16-7.167969-16-16s7.167969-16 16-16h48zm0 0" fill="#fdd835"/><path d="m352 96v304h-352v-304c0-17.679688 14.320312-32 32-32h288c17.679688 0 32 14.320312 32 32zm0 0" fill="#b0b4b9"/><path d="m320 293.601562c-32.414062 11.261719-56.785156 39.726563-62.625 74.398438h-34.816406c-7.648438-45.34375-47.054688-80-94.558594-80s-86.910156 34.65625-94.558594 80h-33.441406v32h352v-112c-11.199219 0-21.921875 1.921875-32 5.601562zm0 0" fill="#9da2a5"/><path d="m192 384c0 35.347656-28.652344 64-64 64s-64-28.652344-64-64 28.652344-64 64-64 64 28.652344 64 64zm0 0" fill="#57565c"/><path d="m128 352c-29.726562 0-54.574219 20.480469-61.726562 48-1.34375-5.152344-2.273438-10.449219-2.273438-16 0-35.296875 28.703125-64 64-64s64 28.703125 64 64c0 5.550781-.929688 10.847656-2.273438 16-7.152343-27.519531-32-48-61.726562-48zm0 0" fill="#2d2d30"/><path d="m416 384c0 35.347656-28.652344 64-64 64s-64-28.652344-64-64 28.652344-64 64-64 64 28.652344 64 64zm0 0" fill="#57565c"/><path d="m352 352c-29.726562 0-54.574219 20.480469-61.726562 48-1.34375-5.152344-2.273438-10.449219-2.273438-16 0-35.296875 28.703125-64 64-64s64 28.703125 64 64c0 5.550781-.929688 10.847656-2.273438 16-7.152343-27.519531-32-48-61.726562-48zm0 0" fill="#2d2d30"/><path d="m304 128c0 70.691406-57.308594 128-128 128s-128-57.308594-128-128 57.308594-128 128-128 128 57.308594 128 128zm0 0" fill="#fdd835"/><path d="m224 144h-64v-80h32v48h32zm0 0" fill="#fff"/></svg>