<svg height="512pt" viewBox="0 0 512 512" width="512pt" xmlns="http://www.w3.org/2000/svg"><path d="m480 512h-448c-17.679688 0-32-14.320312-32-32v-448c0-17.679688 14.320312-32 32-32h448c17.679688 0 32 14.320312 32 32v448c0 17.679688-14.320312 32-32 32zm0 0" fill="#c59969"/><path d="m400 225.105469v-225.105469h-288v281.664062l96-63.984374 48 32 48-32 24.464844 16.304687c-53.265625 19.839844-93.746094 67.757813-102.5625 125.261719-6.992188 45.554687 5.777344 87.953125 30.511718 120.738281h-256.414062c0 17.679687 14.320312 32 32 32h448c17.679688 0 32-14.320313 32-32v-191.824219c-26.097656-34.847656-66.289062-58.464844-112-63.054687zm0 0" fill="#ba8a5a"/><path d="m368 221.886719-64-42.65625-48 32-48-32-64 42.65625v-221.886719h224zm0 0" fill="#fdd835"/><g fill="#fff"><path d="m192 448h-32v-32h32zm-64 0h-64v-32h64zm0 0"/><path d="m64 352h160v32h-160zm0 0"/><path d="m208 64h32v32h-32zm0 0"/><path d="m272 64h32v32h-32zm0 0"/></g><path d="m512 384c0 70.691406-57.308594 128-128 128s-128-57.308594-128-128 57.308594-128 128-128 128 57.308594 128 128zm0 0" fill="#4adeed"/><path d="m432 400h-64v-80h32v48h32zm0 0" fill="#fff"/></svg>