<?xml version="1.0" encoding="iso-8859-1"?>
<!-- Generator: Adobe Illustrator 19.0.0, SVG Export Plug-In . SVG Version: 6.00 Build 0)  -->
<svg version="1.1" id="Capa_1" xmlns="http://www.w3.org/2000/svg" xmlns:xlink="http://www.w3.org/1999/xlink" x="0px" y="0px"
	 viewBox="0 0 512 512" style="enable-background:new 0 0 512 512;" xml:space="preserve">
<path style="fill:#FFCE54;" d="M506.712,152.358c0.027-0.033,0.058-0.063,0.085-0.096c0.104-0.129,0.2-0.263,0.297-0.396
	c0.046-0.065,0.097-0.128,0.142-0.194c0.07-0.105,0.132-0.215,0.196-0.323c0.061-0.104,0.127-0.204,0.185-0.311
	c0.04-0.076,0.074-0.156,0.112-0.234c0.069-0.142,0.141-0.283,0.202-0.43c0.02-0.049,0.035-0.1,0.054-0.148
	c0.069-0.177,0.137-0.355,0.192-0.538c0.008-0.026,0.013-0.054,0.02-0.08c0.06-0.205,0.115-0.411,0.157-0.623
	c0.048-0.236,0.084-0.476,0.109-0.716c0.001-0.01,0.001-0.021,0.002-0.03c0.023-0.242,0.036-0.485,0.037-0.729v-0.01V7.5
	c0-4.143-3.358-7.5-7.5-7.5H351.001c-4.143,0-7.5,3.357-7.5,7.5c0,0.427,0.044,0.843,0.112,1.25
	c-0.068,0.407-0.112,0.823-0.112,1.25v137.5v0.009c0.001,0.244,0.014,0.487,0.037,0.729c0.001,0.01,0.001,0.021,0.002,0.03
	c0.025,0.24,0.061,0.479,0.109,0.716c0.042,0.212,0.098,0.418,0.157,0.623c0.008,0.026,0.013,0.054,0.021,0.08
	c0.055,0.182,0.122,0.358,0.19,0.533c0.02,0.051,0.035,0.102,0.056,0.153c0.061,0.146,0.132,0.287,0.201,0.428
	c0.039,0.079,0.072,0.159,0.113,0.236c0.058,0.106,0.123,0.207,0.185,0.311c0.064,0.108,0.126,0.219,0.196,0.323
	c0.045,0.067,0.096,0.13,0.143,0.195c0.096,0.134,0.191,0.268,0.296,0.395c0.028,0.033,0.06,0.064,0.089,0.099
	c0.128,0.151,0.26,0.3,0.4,0.441c0.008,0.007,0.015,0.013,0.021,0.02c0.213,0.21,0.442,0.406,0.683,0.593
	c0.134,0.105,0.269,0.211,0.41,0.307c0.017,0.011,0.036,0.021,0.054,0.032c0.193,0.128,0.393,0.248,0.598,0.358
	c0.004,0.002,0.006,0.004,0.01,0.006l75.002,39.998c1.103,0.588,2.316,0.882,3.529,0.882c1.213,0,2.427-0.294,3.529-0.882l75-39.998
	c0.004-0.002,0.006-0.004,0.01-0.006c0.205-0.11,0.404-0.23,0.598-0.358c0.018-0.012,0.037-0.021,0.054-0.032
	c0.142-0.096,0.276-0.202,0.41-0.307c0.24-0.186,0.47-0.383,0.683-0.593c0.007-0.007,0.014-0.013,0.021-0.02
	C506.45,152.66,506.582,152.51,506.712,152.358z"/>
<path style="fill:#F6BB42;" d="M501.003,0H471c4.143,0,7.5,3.357,7.5,7.5v129.999v0.006c-0.001,0.247-0.014,0.49-0.037,0.732
	c-0.001,0.01-0.001,0.02-0.002,0.03c-0.025,0.24-0.062,0.48-0.109,0.716c-0.042,0.212-0.098,0.418-0.157,0.623
	c-0.008,0.026-0.013,0.054-0.02,0.08c-0.056,0.184-0.123,0.361-0.192,0.538c-0.019,0.049-0.034,0.1-0.054,0.148
	c-0.062,0.146-0.133,0.288-0.202,0.43c-0.038,0.078-0.072,0.158-0.112,0.234c-0.058,0.107-0.123,0.207-0.185,0.311
	c-0.064,0.108-0.126,0.219-0.196,0.323c-0.045,0.066-0.096,0.129-0.142,0.194c-0.097,0.134-0.192,0.268-0.297,0.396
	c-0.027,0.033-0.058,0.063-0.085,0.096c-0.13,0.151-0.262,0.302-0.404,0.444c-0.008,0.007-0.015,0.013-0.022,0.02
	c-0.213,0.21-0.442,0.406-0.683,0.593c-0.134,0.105-0.269,0.211-0.41,0.307c-0.017,0.011-0.036,0.02-0.054,0.032
	c-0.193,0.128-0.393,0.248-0.598,0.358c-0.004,0.002-0.006,0.004-0.01,0.006l-70.805,40l18.749,9.999
	c1.103,0.588,2.316,0.882,3.529,0.882c1.213,0,2.427-0.294,3.529-0.882l75-39.998c0.004-0.002,0.006-0.004,0.01-0.006
	c0.205-0.11,0.404-0.23,0.598-0.358c0.018-0.012,0.037-0.021,0.054-0.032c0.142-0.096,0.276-0.202,0.41-0.307
	c0.24-0.186,0.47-0.383,0.683-0.593c0.007-0.007,0.014-0.013,0.021-0.02c0.143-0.143,0.274-0.293,0.404-0.444
	c0.027-0.033,0.058-0.063,0.085-0.096c0.104-0.129,0.2-0.263,0.297-0.396c0.046-0.065,0.097-0.128,0.142-0.194
	c0.07-0.105,0.132-0.215,0.196-0.323c0.061-0.104,0.127-0.204,0.185-0.311c0.04-0.076,0.074-0.156,0.112-0.234
	c0.069-0.142,0.141-0.283,0.202-0.43c0.02-0.049,0.035-0.1,0.054-0.148c0.069-0.177,0.137-0.355,0.192-0.538
	c0.008-0.026,0.013-0.054,0.02-0.08c0.06-0.205,0.115-0.411,0.157-0.623c0.048-0.236,0.084-0.476,0.109-0.716
	c0.001-0.01,0.001-0.021,0.002-0.03c0.023-0.242,0.036-0.485,0.037-0.729V147.5V7.5C508.503,3.357,505.146,0,501.003,0z"/>
<path style="fill:#AC92EC;" d="M260.989,156.996H10.999c-4.142,0-7.5,3.357-7.5,7.5V504.49c0,4.143,3.358,7.5,7.5,7.5h249.99
	c4.143,0,7.5-3.357,7.5-7.5V164.496C268.489,160.354,265.132,156.996,260.989,156.996z"/>
<path style="fill:#CCD1D9;" d="M138.503,156.996v-27.5c0-26.191,21.309-47.5,47.5-47.5s47.5,21.309,47.5,47.5v27.5h15v-27.5
	c0-34.463-28.037-62.5-62.5-62.5s-62.5,28.037-62.5,62.5v27.5H138.503z"/>
<path style="fill:#967ADC;" d="M260.989,156.996h-30.003c4.143,0,7.5,3.357,7.5,7.5V504.49c0,4.143-3.357,7.5-7.5,7.5h30.003
	c4.143,0,7.5-3.357,7.5-7.5V164.496C268.489,160.354,265.132,156.996,260.989,156.996z"/>
<path style="fill:#7E64CC;" d="M310.998,156.996h-50.009c4.143,0,7.5,3.357,7.5,7.5V504.49c0,4.143-3.357,7.5-7.5,7.5h50.009
	c4.142,0,7.5-3.357,7.5-7.5V164.496C318.498,160.354,315.141,156.996,310.998,156.996z"/>
<path style="fill:#48CFAD;" d="M458.501,234.488c0-4.143-3.357-7.5-7.5-7.5H318.498V504.49c0,4.143-3.358,7.5-7.5,7.5L451.001,512
	c4.143,0,7.5-3.357,7.5-7.5c0-0.07-0.009-0.139-0.011-0.209c0.002-0.07,0.011-0.139,0.011-0.209V234.488z"/>
<path style="fill:#2DAA86;" d="M508.501,234.488c0-4.143-3.357-7.5-7.5-7.5h-50c4.143,0,7.5,3.357,7.5,7.5v269.594
	c0,0.07-0.009,0.139-0.011,0.209c0.002,0.07,0.011,0.139,0.011,0.209c0,4.119-3.32,7.459-7.431,7.497L501.001,512
	c4.143,0,7.5-3.357,7.5-7.5c0-0.07-0.009-0.139-0.011-0.209c0.002-0.07,0.011-0.139,0.011-0.209V234.488z"/>
<path style="fill:#37BC9B;" d="M458.501,234.488c0-4.143-3.357-7.5-7.5-7.5h-30.003c4.142,0,7.5,3.357,7.5,7.5v269.594
	c0,0.07-0.009,0.139-0.011,0.209c0.002,0.07,0.011,0.139,0.011,0.209c0,4.129-3.335,7.476-7.458,7.498L451.001,512
	c4.143,0,7.5-3.357,7.5-7.5c0-0.07-0.009-0.139-0.011-0.209c0.002-0.07,0.011-0.139,0.011-0.209V234.488z"/>
<g>
	<path style="fill:#ED5565;" d="M396.005,75.002c-12.406,0-22.5-10.094-22.5-22.5s10.094-22.5,22.5-22.5s22.5,10.094,22.5,22.5
		S408.411,75.002,396.005,75.002z M396.005,45.002c-4.136,0-7.5,3.364-7.5,7.5s3.364,7.5,7.5,7.5s7.5-3.364,7.5-7.5
		S400.141,45.002,396.005,45.002z"/>
	<path style="fill:#ED5565;" d="M456.005,135.002c-12.406,0-22.5-10.094-22.5-22.5s10.094-22.5,22.5-22.5s22.5,10.094,22.5,22.5
		S468.411,135.002,456.005,135.002z M456.005,105.002c-4.136,0-7.5,3.364-7.5,7.5s3.364,7.5,7.5,7.5s7.5-3.364,7.5-7.5
		S460.141,105.002,456.005,105.002z"/>
	<path style="fill:#ED5565;" d="M381.005,135.004c-1.919,0-3.839-0.732-5.304-2.196c-2.929-2.93-2.929-7.678,0-10.607l90.002-90.002
		c2.93-2.928,7.678-2.928,10.608,0c2.929,2.93,2.929,7.678,0,10.607l-90.002,90.002
		C384.844,134.271,382.924,135.004,381.005,135.004z"/>
</g>
<g>
	<path style="fill:#E6E9ED;" d="M136.169,66.996c-34.463,0-62.5,28.037-62.5,62.5v94.998c0,4.143,3.357,7.5,7.5,7.5
		s7.5-3.357,7.5-7.5v-94.998c0-26.191,21.309-47.5,47.5-47.5s47.5,21.309,47.5,47.5v94.998c0,4.143,3.357,7.5,7.5,7.5
		s7.5-3.357,7.5-7.5v-94.998C198.669,95.033,170.632,66.996,136.169,66.996z"/>
	<path style="fill:#E6E9ED;" d="M361.003,256.99c-4.143,0-7.5,3.357-7.5,7.5c0,20.877-15.135,38.274-35.005,41.827v15.17
		c28.175-3.686,50.005-27.832,50.005-56.997C368.503,260.348,365.146,256.99,361.003,256.99z"/>
</g>
<g>
</g>
<g>
</g>
<g>
</g>
<g>
</g>
<g>
</g>
<g>
</g>
<g>
</g>
<g>
</g>
<g>
</g>
<g>
</g>
<g>
</g>
<g>
</g>
<g>
</g>
<g>
</g>
<g>
</g>
</svg>
