<?xml version="1.0" encoding="iso-8859-1"?>
<!-- Generator: Adobe Illustrator 19.0.0, SVG Export Plug-In . SVG Version: 6.00 Build 0)  -->
<svg version="1.1" id="Capa_1" xmlns="http://www.w3.org/2000/svg" xmlns:xlink="http://www.w3.org/1999/xlink" x="0px" y="0px"
	 viewBox="0 0 512.001 512.001" style="enable-background:new 0 0 512.001 512.001;" xml:space="preserve">
<g>
	<path style="fill:#D72846;" d="M493.403,213.756h-48.027c-10.255,0-18.598-8.343-18.598-18.597V117.52
		c0-10.255,8.343-18.598,18.598-18.598h48.027c10.255,0,18.598,8.343,18.598,18.598v77.639
		C512,205.413,503.658,213.756,493.403,213.756z M445.375,115.172c-1.295,0-2.348,1.053-2.348,2.348v77.639
		c0,1.295,1.053,2.347,2.348,2.347h48.027c1.295,0,2.348-1.053,2.348-2.347V117.52c0-1.295-1.053-2.348-2.348-2.348H445.375z"/>
	<path style="fill:#D72846;" d="M237.209,213.756H189.18c-10.255,0-18.597-8.343-18.597-18.597V117.52
		c0-10.255,8.342-18.598,18.597-18.598h48.028c10.255,0,18.597,8.343,18.597,18.598v77.639
		C255.805,205.413,247.464,213.756,237.209,213.756z M189.18,115.172c-1.294,0-2.347,1.053-2.347,2.348v77.639
		c0,1.295,1.053,2.347,2.347,2.347h48.028c1.294,0,2.347-1.053,2.347-2.347V117.52c0-1.295-1.053-2.348-2.347-2.348H189.18z"/>
</g>
<path style="fill:#E64B55;" d="M341.291,0.88c-70.747,0-128.098,23.281-128.098,52v235.084h256.195V52.88
	C469.389,24.161,412.038,0.88,341.291,0.88z"/>
<path style="fill:#D72846;" d="M440.142,102.714h-89.46v88.112h-18.779v-88.112h-88.929c-6.183,0-11.194,5.012-11.194,11.194v74.389
	c0,6.183,5.012,11.194,11.194,11.194c43.891,0,155.752,0,197.167,0c6.183,0,11.194-5.012,11.194-11.194v-74.389
	C451.336,107.726,446.324,102.714,440.142,102.714z"/>
<path style="fill:#50555A;" d="M277.938,348.27h-29.552c-6.997,0-12.668-5.672-12.668-12.668v-45.471h54.889v45.471
	C290.606,342.598,284.935,348.27,277.938,348.27z"/>
<path style="fill:#393C40;" d="M434.198,348.27h-29.552c-6.997,0-12.668-5.672-12.668-12.668v-45.471h54.889v45.471
	C446.866,342.598,441.194,348.27,434.198,348.27z"/>
<path style="fill:#D72846;" d="M388.704,76.283h-94.826c-4.998,0-9.049-4.051-9.049-9.049V41.827c0-4.998,4.051-9.049,9.049-9.049
	h94.826c4.998,0,9.049,4.051,9.049,9.049v25.407C397.753,72.231,393.702,76.283,388.704,76.283z"/>
<path style="fill:#FFFFFF;" d="M388.704,72.286h-94.826c-4.998,0-9.049-4.051-9.049-9.049V37.83c0-4.998,4.051-9.049,9.049-9.049
	h94.826c4.998,0,9.049,4.051,9.049,9.049v25.407C397.753,68.235,393.702,72.286,388.704,72.286z"/>
<g>
	<path style="fill:#FAC855;" d="M314.853,39.95c0-1.034,1.098-1.551,2.197-1.551h6.622c3.231,0,6.462,1.163,6.462,5.751
		c0,2.617-1.034,4.329-2.747,5.073c1.97,0.742,3.327,1.938,3.327,5.17v0.678c0,5.106-2.844,6.947-6.494,6.947h-7.172
		c-1.357,0-2.197-0.71-2.197-1.519V39.95H314.853z M319.861,47.284h3.393c1.228,0,1.84-1.131,1.84-2.229
		c0-1.131-0.613-2.261-1.84-2.261h-3.393V47.284z M323.092,57.623c1.615,0,2.585-0.905,2.585-2.972v-0.518
		c0-2.197-0.97-2.972-2.585-2.972h-3.231v6.461L323.092,57.623L323.092,57.623z"/>
	<path style="fill:#FAC855;" d="M344.481,39.919c0-1.066,1.228-1.519,2.519-1.519c1.228,0,2.521,0.453,2.521,1.519v14.668
		c0,5.557-3.587,7.624-8.141,7.624c-4.588,0-8.143-2.068-8.143-7.624V39.919c0-1.066,1.228-1.519,2.521-1.519
		c1.228,0,2.521,0.453,2.521,1.519v14.668c0,2.197,1.162,3.23,3.101,3.23c1.938,0,3.101-1.034,3.101-3.23L344.481,39.919
		L344.481,39.919z"/>
	<path style="fill:#FAC855;" d="M362.605,55.685c0-3.909-10.242-3.23-10.242-10.791c0-4.846,4.233-6.687,8.271-6.687
		c1.712,0,6.429,0.323,6.429,2.844c0,0.872-0.581,2.649-2.002,2.649c-1.163,0-1.776-1.228-4.426-1.228
		c-2.294,0-3.231,0.937-3.231,1.938c0,3.23,10.242,2.617,10.242,10.758c0,4.652-3.393,7.173-8.077,7.173
		c-4.233,0-7.786-2.068-7.786-4.2c0-1.099,0.968-2.714,2.197-2.714c1.518,0,2.487,2.39,5.491,2.39
		C360.957,57.817,362.605,57.235,362.605,55.685z"/>
</g>
<path style="fill:#D72846;" d="M472.014,307.103H210.569c-9.374,0-16.972-7.598-16.972-16.972l0,0
	c0-9.374,7.598-16.972,16.972-16.972h261.445c9.374,0,16.972,7.598,16.972,16.972l0,0
	C488.986,299.504,481.388,307.103,472.014,307.103z"/>
<g>
	<circle style="fill:#FAC855;" cx="261.124" cy="242.46" r="19.861"/>
	<circle style="fill:#FAC855;" cx="421.455" cy="242.46" r="19.861"/>
</g>
<path style="fill:#73C8F0;" d="M331.902,94.047h-88.929c-6.183,0-11.194,5.012-11.194,11.194v74.39
	c0,6.183,5.012,11.194,11.194,11.194h88.929V94.047z"/>
<path style="fill:#41B4E6;" d="M440.142,94.047h-89.46v96.778h89.46c6.183,0,11.194-5.012,11.194-11.194v-74.39
	C451.336,99.059,446.324,94.047,440.142,94.047z"/>
<g>
	<polygon style="fill:#AFE6FF;" points="313.928,94.047 285.787,94.047 246.787,190.825 274.928,190.825 	"/>
	<polygon style="fill:#AFE6FF;" points="331.261,94.047 321.537,94.047 282.537,190.825 292.261,190.825 	"/>
</g>
<g>
	<polygon style="fill:#73C8F0;" points="417.821,94.047 389.68,94.047 350.68,190.825 378.821,190.825 	"/>
	<polygon style="fill:#73C8F0;" points="435.154,94.047 425.43,94.047 386.43,190.825 396.154,190.825 	"/>
</g>
<g>
	<path style="fill:#FAF58C;" d="M261.125,222.603c-10.97,0-19.861,8.892-19.861,19.861s8.892,19.861,19.861,19.861V222.603z"/>
	<path style="fill:#FAF58C;" d="M421.459,222.603c-10.969,0-19.861,8.892-19.861,19.861s8.892,19.861,19.861,19.861V222.603z"/>
</g>
<path style="fill:#5F6E9B;" d="M45.668,299.38v189.424c0,12.325,9.992,22.318,22.319,22.318s22.319-9.992,22.319-22.318V299.38
	H45.668z"/>
<path style="fill:#414B82;" d="M99.544,299.38v189.424c0,12.325,9.992,22.318,22.319,22.318s22.319-9.992,22.319-22.318V299.38
	H99.544z"/>
<g>
	<circle style="fill:#FFB69E;" cx="94.718" cy="81.34" r="38.547"/>
	<path style="fill:#FFB69E;" d="M189.488,175.965c-0.115-22.899-18.658-43.793-46.38-43.793c-17.292,0-97.927,0-97.927,0l0,0
		c-25.71,0-45.064,20.5-45.181,43.793v25.455l0,0v111.183c-0.051,10.272,8.234,18.64,18.505,18.692h0.096
		c10.228,0,18.545-8.265,18.596-18.505c0-14.617,0-119.679,0-136.637c0.019-3.74,3.763-6.782,7.502-6.782h0.968v141.039h98.514
		l-0.002-141.042c0,0,2.215-0.296,4.621,1.163c2.3,1.395,3.48,3.616,3.49,5.622c0,16.919,0,121.73,0,136.638
		c0.051,10.239,8.369,18.504,18.596,18.504h0.096c10.271-0.052,18.557-8.42,18.505-18.692L189.488,175.965z"/>
</g>
<path style="fill:#64AFFF;" d="M143.107,132.172h-28.154c0,0.003,0.001,0.007,0.001,0.01c0.498,11.115-9.815,20.581-20.581,20.581
	c-11.538,0-20.082-9.431-20.581-20.581c0-0.003,0-0.007,0-0.01c-16.162,0-28.611,0-28.611,0c-25.71,0-45.064,20.5-45.181,43.793
	v25.455l0,0v11.04h37.197v-36.308c0.019-3.74,3.763-6.782,7.502-6.782h0.968v141.039h98.514l-0.002-141.042
	c0,0,2.215-0.296,4.621,1.163c2.3,1.395,3.48,3.615,3.49,5.622v36.308h37.197v-36.494
	C189.373,153.065,170.829,132.172,143.107,132.172z"/>
<g>
</g>
<g>
</g>
<g>
</g>
<g>
</g>
<g>
</g>
<g>
</g>
<g>
</g>
<g>
</g>
<g>
</g>
<g>
</g>
<g>
</g>
<g>
</g>
<g>
</g>
<g>
</g>
<g>
</g>
</svg>
