<?xml version="1.0" encoding="iso-8859-1"?>
<!-- Generator: Adobe Illustrator 19.0.0, SVG Export Plug-In . SVG Version: 6.00 Build 0)  -->
<svg version="1.1" id="Capa_1" xmlns="http://www.w3.org/2000/svg" xmlns:xlink="http://www.w3.org/1999/xlink" x="0px" y="0px"
	 viewBox="0 0 512 512" style="enable-background:new 0 0 512 512;" xml:space="preserve">
<circle style="fill:#FFC247;" cx="256" cy="256" r="256"/>
<path style="fill:#FFA426;" d="M512,256c0-17.756-1.81-35.089-5.252-51.827L422.575,120l-25.022,29.964l-64.445-64.445L89.425,359
	l60.803,60.803L146.575,423l88.11,88.11c7.03,0.58,14.136,0.89,21.315,0.89C397.385,512,512,397.385,512,256z"/>
<polygon style="fill:#FFFFFF;" points="422.575,120 89.425,120 89.425,359 146.575,359 146.575,423 224.049,359 422.575,359 "/>
<rect x="255.57" y="120" style="fill:#F2F6FC;" width="167" height="239"/>
<rect x="152.71" y="157.69" style="fill:#AD2F15;" width="207.62" height="148.57"/>
<rect x="255.57" y="157.69" style="fill:#912B12;" width="104.75" height="148.57"/>
<g>
	<polygon style="fill:#F24500;" points="179.923,85.519 126.047,175.356 386.985,175.356 333.108,85.519 	"/>
	<polygon style="fill:#F24500;" points="333.108,85.519 255.571,85.519 255.571,175.356 386.985,175.356 	"/>
</g>
<rect x="218.07" y="206.67" style="fill:#D6CEC1;" width="76.891" height="99.58"/>
<rect x="255.57" y="206.67" style="fill:#CDC3B4;" width="39.39" height="99.58"/>
<circle style="fill:#A0968C;" cx="236.18" cy="254.91" r="9"/>
<g>
</g>
<g>
</g>
<g>
</g>
<g>
</g>
<g>
</g>
<g>
</g>
<g>
</g>
<g>
</g>
<g>
</g>
<g>
</g>
<g>
</g>
<g>
</g>
<g>
</g>
<g>
</g>
<g>
</g>
</svg>
